<?xml version="1.0" encoding="UTF-8"?>
<svg id="LOGO" xmlns="http://www.w3.org/2000/svg" xmlns:xlink="http://www.w3.org/1999/xlink" viewBox="0 0 935.45 283.47"><defs><style>.cls-1{fill:url(#Dégradé_sans_nom_9);filter:url(#luminosity-invert-noclip);}.cls-2{fill:url(#radial-gradient);}.cls-3{fill:none;}.cls-4{fill:#ffcd00;}.cls-5{fill:url(#Dégradé_sans_nom_31);}.cls-6{mask:url(#mask);}.cls-7{fill:url(#Dégradé_sans_nom_27);}.cls-8{fill:url(#Dégradé_sans_nom_25);}.cls-9{fill:url(#Dégradé_sans_nom_25-2);}.cls-10{fill:url(#Dégradé_sans_nom_24);}.cls-11{fill:url(#Dégradé_sans_nom_23);}.cls-12{fill:url(#Dégradé_sans_nom_22);}.cls-13{fill:url(#Dégradé_sans_nom_21);}.cls-14{fill:url(#Dégradé_sans_nom_20);}.cls-15{fill:url(#Dégradé_sans_nom_18);}.cls-16{fill:url(#Dégradé_sans_nom_15);}.cls-17{fill:url(#Dégradé_sans_nom_14);}.cls-18{fill:url(#Dégradé_sans_nom_11);}.cls-19{fill:url(#Dégradé_sans_nom_3);}.cls-20{fill:url(#Dégradé_sans_nom_7);}.cls-21{fill:url(#Dégradé_sans_nom_5);}.cls-22{fill:#fff;}.cls-23{clip-path:url(#clip-path);}.cls-24{mask:url(#mask-2);}.cls-25{fill:url(#Dégradé_sans_nom_2);}</style><linearGradient id="Dégradé_sans_nom_9" x1="109.94" y1="297.54" x2="109.94" y2="143.83" gradientUnits="userSpaceOnUse"><stop offset=".85" stop-color="#fff"/><stop offset="1"/></linearGradient><radialGradient id="radial-gradient" cx="154.93" cy="142.94" r="23.33" gradientUnits="userSpaceOnUse"><stop offset=".17" stop-color="#fff"/><stop offset=".19" stop-color="#ebebeb"/><stop offset=".25" stop-color="#bababa"/><stop offset=".31" stop-color="#8e8e8e"/><stop offset=".37" stop-color="#686868"/><stop offset=".44" stop-color="#474747"/><stop offset=".52" stop-color="#2d2d2d"/><stop offset=".6" stop-color="#191919"/><stop offset=".7" stop-color="#0b0b0b"/><stop offset=".81" stop-color="#030303"/><stop offset="1"/></radialGradient><linearGradient id="Dégradé_sans_nom_31" x1="113.37" y1="278.09" x2="113.37" y2="5.38" gradientUnits="userSpaceOnUse"><stop offset="0" stop-color="#e5e5e5"/><stop offset=".69" stop-color="#fff"/><stop offset="1" stop-color="#919191"/></linearGradient><filter id="luminosity-invert-noclip" x="-28.78" y="5.38" width="277.45" height="292.16" filterUnits="userSpaceOnUse" color-interpolation-filters="sRGB"><feColorMatrix values="-1 0 0 0 1 0 -1 0 0 1 0 0 -1 0 1 0 0 0 1 0" result="invert"/><feFlood flood-color="#fff" result="bg"/><feBlend in="invert" in2="bg"/></filter><mask id="mask" x="-28.78" y="5.38" width="277.45" height="292.16" maskUnits="userSpaceOnUse"><path class="cls-1" d="M-28.78 143.83h277.45v153.71H-28.78z"/></mask><radialGradient id="Dégradé_sans_nom_27" cx="97.13" cy="75.71" r="136.48" gradientTransform="translate(2.5)" gradientUnits="userSpaceOnUse"><stop offset=".4" stop-color="#fff"/><stop offset="1" stop-color="#919191"/></radialGradient><linearGradient id="Dégradé_sans_nom_25" x1="59.45" y1="276.75" x2="59.45" y2="142.41" gradientUnits="userSpaceOnUse"><stop offset=".01" stop-color="#e5e5e5"/><stop offset=".34" stop-color="#a6a6a6"/><stop offset=".69" stop-color="#333"/><stop offset=".85" stop-color="#1a1a1a"/><stop offset=".95" stop-color="#111"/><stop offset=".96" stop-color="#141414"/><stop offset=".97" stop-color="#1d1d1d"/><stop offset=".98" stop-color="#2d2d2d"/><stop offset=".99" stop-color="#444"/><stop offset="1" stop-color="#616161"/><stop offset="1" stop-color="#666"/></linearGradient><linearGradient id="Dégradé_sans_nom_25-2" x1="83.28" y1="277.12" x2="83.28" y2="277.12" xlink:href="#Dégradé_sans_nom_25"/><linearGradient id="Dégradé_sans_nom_24" x1="152.04" y1="276.74" x2="152.04" y2="142.29" gradientUnits="userSpaceOnUse"><stop offset=".01" stop-color="#e5e5e5"/><stop offset=".34" stop-color="#a6a6a6"/><stop offset=".69" stop-color="#333"/><stop offset=".85" stop-color="#1a1a1a"/><stop offset=".95" stop-color="#111"/><stop offset=".97" stop-color="#141414"/><stop offset=".98" stop-color="#1d1d1d"/><stop offset=".98" stop-color="#2d2d2d"/><stop offset=".99" stop-color="#444"/><stop offset="1" stop-color="#616161"/><stop offset="1" stop-color="#666"/></linearGradient><linearGradient id="Dégradé_sans_nom_23" x1="107.51" y1="140.83" x2="107.51" y2="5.5" gradientUnits="userSpaceOnUse"><stop offset="0" stop-color="#333"/><stop offset=".01" stop-color="#292929"/><stop offset=".02" stop-color="#1e1e1e"/><stop offset=".04" stop-color="#1a1a1a"/><stop offset=".12" stop-color="#151515"/><stop offset=".23" stop-color="#050505"/><stop offset=".25"/></linearGradient><linearGradient id="Dégradé_sans_nom_22" x1="134.19" y1="141.77" x2="134.19" y2="63.43" gradientUnits="userSpaceOnUse"><stop offset="0" stop-color="#737373"/><stop offset=".15" stop-color="#6e6e6e"/><stop offset=".33" stop-color="#5e5e5e"/><stop offset=".53" stop-color="#454545"/><stop offset=".75" stop-color="#222"/><stop offset=".8" stop-color="#1a1a1a"/><stop offset=".92"/></linearGradient><linearGradient id="Dégradé_sans_nom_21" x1="92.51" y1="220.2" x2="92.51" y2="141.82" gradientUnits="userSpaceOnUse"><stop offset=".36" stop-color="#bfbfbf"/><stop offset=".47" stop-color="#bababa"/><stop offset=".61" stop-color="#acacac"/><stop offset=".75" stop-color="#959595"/><stop offset=".9" stop-color="#757575"/><stop offset=".96" stop-color="#666"/><stop offset="1" stop-color="#333"/></linearGradient><linearGradient id="Dégradé_sans_nom_20" x1="123.29" y1="193.63" x2="51.99" y2="161.46" gradientUnits="userSpaceOnUse"><stop offset=".01" stop-color="#f2f2f2" stop-opacity=".8"/><stop offset=".11" stop-color="#ededed" stop-opacity="0"/></linearGradient><linearGradient id="Dégradé_sans_nom_18" x1="119.15" y1="276.26" x2="119.15" y2="140.9" gradientUnits="userSpaceOnUse"><stop offset="0" stop-color="#fff"/><stop offset=".22" stop-color="#f9f9f9"/><stop offset=".51" stop-color="#e7e7e7"/><stop offset=".85" stop-color="#cbcbcb"/><stop offset=".97" stop-color="#bfbfbf"/><stop offset=".99" stop-color="#737373"/></linearGradient><linearGradient id="Dégradé_sans_nom_15" x1="39.86" y1="281.62" x2="39.86" y2="141.73" gradientUnits="userSpaceOnUse"><stop offset="0" stop-color="#666"/><stop offset=".19" stop-color="#5e5e5e"/><stop offset=".58" stop-color="#515151"/><stop offset=".97" stop-color="#4d4d4d"/><stop offset=".99" stop-color="#757575"/><stop offset="1" stop-color="#8c8c8c"/></linearGradient><linearGradient id="Dégradé_sans_nom_14" x1="86.51" y1="264.7" x2="140.38" y2="295.8" gradientUnits="userSpaceOnUse"><stop offset=".02" stop-color="#666"/><stop offset=".04" stop-color="#4a4a4a"/><stop offset=".06" stop-color="#363636"/><stop offset=".08" stop-color="#292929"/><stop offset=".1" stop-color="#252525"/></linearGradient><linearGradient id="Dégradé_sans_nom_11" x1="127.29" y1="39.86" x2="246.69" y2="105.23" gradientUnits="userSpaceOnUse"><stop offset="0" stop-color="#595959"/><stop offset="1" stop-color="#737373"/></linearGradient><linearGradient id="Dégradé_sans_nom_3" x1="145.1" y1="12.71" x2="80.42" y2="-5.84" gradientUnits="userSpaceOnUse"><stop offset=".01" stop-color="#595959"/><stop offset=".03" stop-color="#757575"/><stop offset=".04" stop-color="#909090"/><stop offset=".06" stop-color="#a0a0a0"/><stop offset=".07" stop-color="#a6a6a6"/><stop offset=".5" stop-color="#bebebe"/><stop offset="1" stop-color="#bfbfbf"/></linearGradient><linearGradient id="Dégradé_sans_nom_7" x1="-18.07" y1="94.58" x2="97.27" y2="50.31" gradientUnits="userSpaceOnUse"><stop offset="0" stop-color="#8c8c8c"/><stop offset=".99" stop-color="#737373"/><stop offset="1" stop-color="#bfbfbf"/></linearGradient><linearGradient id="Dégradé_sans_nom_5" x1="186.46" y1="282.05" x2="186.46" y2="141.39" gradientUnits="userSpaceOnUse"><stop offset=".02" stop-color="#252525"/><stop offset=".22" stop-color="#2e2e2e"/><stop offset=".6" stop-color="#3b3b3b"/><stop offset=".97" stop-color="#3f3f3f"/><stop offset=".99" stop-color="#5c5c5c"/><stop offset="1" stop-color="#737373"/></linearGradient><clipPath id="clip-path"><path class="cls-3" d="M226.74 141.73a18 18 0 0 0-2-7.63c-4.12-8.59-16.93-33.8-27.79-53.49q-1.27-2.3-2.64-4.75a77.79 77.79 0 0 0-80.23-.08c1 1.92 9 17.16 16.29 32.11 6.84 14 12.81 27.45 13.47 28.93a11.91 11.91 0 0 1 1.43 4.94c0 1.56-.53 2.77-1.41 4.77v.11c-.06.13-6.31 14.23-13.53 29-6.47 13.24-13.5 26.78-16.22 32l-.13.24a2.19 2.19 0 0 1-.59.88 2.11 2.11 0 0 1-.59-.87l-.4-.77c-7.63-14.6-12.9-25.17-16-31.47-6.92-14.16-13.06-28-13.5-29l-.06-.14a12.65 12.65 0 0 1-1.4-4.82 12.53 12.53 0 0 1 1.45-4.85l.36-.81c4.37-9.92 8.78-19.38 13.09-28.13 6.26-12.7 13.3-26.3 15.64-30.79a78.32 78.32 0 0 0 42.17 144.08 77.38 77.38 0 0 0 38.19-10c1.69-3 3.26-5.8 4.64-8.33 12.41-22.68 26.2-49.93 27.79-53.49 1.73-3.92 1.97-5.99 1.97-7.64z"/></clipPath><mask id="mask-2" x="76.45" y="64.7" width="156.48" height="156.48" maskUnits="userSpaceOnUse"><circle class="cls-2" cx="154.93" cy="142.94" r="23.33" id="_Groupe_" data-name="&lt;Groupe&gt;"/></mask><radialGradient id="Dégradé_sans_nom_2" cx="154.69" cy="142.94" r="78.24" gradientUnits="userSpaceOnUse"><stop offset="0" stop-color="#fff"/><stop offset=".19" stop-color="#fff" stop-opacity=".63"/><stop offset=".39" stop-color="#fff" stop-opacity=".29"/><stop offset=".52" stop-color="#fff" stop-opacity=".08"/><stop offset=".59" stop-color="#fff" stop-opacity="0"/></radialGradient></defs><title>renault</title><path d="M793.71 109.87v11.63h-24.22v51.14h-16.33V121.5H729v-11.63h64.75zM735.93 161v11.63H684v-62.76h16.32V161h35.57zM421.65 161v11.63h-54.51v-62.76h53.48v11.63h-37.15v13.79h33.95v11.25h-33.95V161h38.18zM337.89 149.32a21.83 21.83 0 0 0 11.31-19.09c0-6.53-1.9-11.59-5.89-14.92-4.64-3.84-11-5.44-21.73-5.44h-37.44l-.67 3.78s.67 1.13 1.44 2.49a5.83 5.83 0 0 1 1.06 3.92v52.57h16.33v-20.1h20.3l10.89 20.1h18zm-8.26-10.19a6.62 6.62 0 0 1-5.06 1.82h-22.26v-19.13h17.59c5.23 0 8 .59 9.92 2.12s2.74 3.73 2.74 7.06-.92 6.2-2.92 8.13zM490 109.86v41.64c-3.81-4.79-7.8-9.42-14.56-16.84-5.5-6-17-18.42-22.85-24.78h-15.76l-.66 3.78s.67 1.13 1.44 2.49a5.81 5.81 0 0 1 1.08 3v53.48h14.67V131c2.93 3.9 8.14 9.9 11.62 13.67 6.93 7.49 17.39 19.17 25.53 28h14.1v-62.8H490zM649.85 109.87v38.38c0 4.28-.85 6.83-2.94 8.78-2.64 2.46-7 3.63-13.31 3.63s-10.88-1.17-13.51-3.63c-2.08-2-2.94-4.51-2.94-8.78v-38.38H599l-.66 3.78s.68 1.13 1.43 2.49a6 6 0 0 1 1.06 2.92v29.78c0 16.41 11.12 24.76 32.55 24.76h.45c21.46 0 32-8.12 32-24.76v-39h-16zM564.49 109.87h-20.4c-6.19 12.78-17 36.35-27 62.77h16.38c1.31-3.57 2.69-7.22 4.08-10.87H571c1.41 3.65 2.79 7.3 4.09 10.87h16.39c-10.04-26.41-20.81-49.99-26.99-62.77zm-22.27 40.07c4.29-10.69 8.6-20.81 12.06-28.65 3.47 7.84 7.79 18 12.07 28.65h-24.13z"/><path class="cls-4" d="M902.89 0h32.56v283.47h-32.56z"/><path class="cls-5" d="M219.91 136.41c-4.83-10.21-16.16-32.33-27.64-53.19-16.18-29.41-41.51-71.3-44.12-74.89a9.09 9.09 0 0 0-1.86-2 3.27 3.27 0 0 0-1-.51 10.72 10.72 0 0 0-3.14 0 13.51 13.51 0 0 1-1.83 0c-5.41-.23-16.27-.45-27-.45-13.15 0-29 .4-31.05.61a4.64 4.64 0 0 0-1.87.5 4.73 4.73 0 0 0-1.91 1.84C76.07 12 50.65 53.8 34.46 83.22 23 104.08 11.66 126.2 6.83 136.41a12.84 12.84 0 0 0-1.47 5.33 13 13 0 0 0 1.47 5.32c4.83 10.21 16.16 32.33 27.64 53.19 16.18 29.41 41.51 71.3 44.12 74.89a13.94 13.94 0 0 0 1.11 1.38 4 4 0 0 0 1.74 1.18 9.64 9.64 0 0 0 3 0 14.25 14.25 0 0 1 1.83 0c6.52.22 16.53.46 27.13.45 13.15 0 28.52-.34 30.83-.61h.37a5.45 5.45 0 0 0 1.64-.36c.53-.22 1-.65 2.06-2.14 2.61-3.59 27.82-45.27 44-74.69 11.48-20.86 22.81-43 27.64-53.19a13.92 13.92 0 0 0 1.47-5.66 11.7 11.7 0 0 0-1.5-5.09zm-74.69 10.84c-10.83 24.28-18.52 39.42-29.92 61.34-.66 1.26-1.2 2.09-1.94 2.1s-1.27-.83-1.94-2.11c-11.42-21.92-19.1-37.05-29.93-61.33a13.13 13.13 0 0 1-1.58-5.56 13.57 13.57 0 0 1 1.59-5.48c10.83-24.28 18.5-39.42 29.93-61.35.66-1.26 1.18-2.09 1.93-2.1.76 0 1.28.83 1.95 2.1 11.41 21.93 19.09 37.06 29.92 61.34a13.08 13.08 0 0 1 1.56 5.56c.02 1.96-.66 3.46-1.57 5.49z"/><path class="cls-6 cls-7" d="M219.91 136.41c-4.83-10.21-16.16-32.33-27.64-53.19-16.18-29.41-41.51-71.3-44.12-74.89a9.09 9.09 0 0 0-1.86-2 3.27 3.27 0 0 0-1-.51 10.72 10.72 0 0 0-3.14 0 13.51 13.51 0 0 1-1.83 0c-5.41-.23-16.27-.45-27-.45-13.15 0-29 .4-31.05.61a4.64 4.64 0 0 0-1.87.5 4.73 4.73 0 0 0-1.91 1.84C76.07 12 50.65 53.8 34.46 83.22 23 104.08 11.66 126.2 6.83 136.41a12.84 12.84 0 0 0-1.47 5.33 13 13 0 0 0 1.47 5.32c4.83 10.21 16.16 32.33 27.64 53.19 16.18 29.41 41.51 71.3 44.12 74.89a13.94 13.94 0 0 0 1.11 1.38 4 4 0 0 0 1.74 1.18 9.64 9.64 0 0 0 3 0 14.25 14.25 0 0 1 1.83 0c6.52.22 16.53.46 27.13.45 13.15 0 28.52-.34 30.83-.61h.37a5.45 5.45 0 0 0 1.64-.36c.53-.22 1-.65 2.06-2.14 2.61-3.59 27.82-45.27 44-74.69 11.48-20.86 22.81-43 27.64-53.19a13.92 13.92 0 0 0 1.47-5.66 11.7 11.7 0 0 0-1.5-5.09zm-74.69 10.84c-10.83 24.28-18.52 39.42-29.92 61.34-.66 1.26-1.2 2.09-1.94 2.1s-1.27-.83-1.94-2.11c-11.42-21.92-19.1-37.05-29.93-61.33a13.13 13.13 0 0 1-1.58-5.56 13.57 13.57 0 0 1 1.59-5.48c10.83-24.28 18.5-39.42 29.93-61.35.66-1.26 1.18-2.09 1.93-2.1.76 0 1.28.83 1.95 2.1 11.41 21.93 19.09 37.06 29.92 61.34a13.08 13.08 0 0 1 1.56 5.56c.02 1.96-.66 3.46-1.57 5.49z"/><path class="cls-8" d="M73.22 150.57s-3.18-6-3.31-8.3a4 4 0 0 1 0-.72c.05-.6-.18-.38-.7.11-.93.88-2.57 1.74-6.58 1.74H14.48c-2.11 0-4.94-.16-4.94 3.18 0 2 1.7 5.92 5.2 12.75 19.1 37.33 40.32 74.67 63.07 111.12 0 0 3.47 5.59 3.83 6a1.78 1.78 0 0 0 1.63.63 603.29 603.29 0 0 0 26.08-55.22C96.39 198 84.41 174.34 73.22 150.57z"/><path class="cls-9" d="M83.27 277.12z"/><path class="cls-10" d="M218.71 142.07c-.52.53-2 1.31-5.23 1.31h-39.66c-18.19 0-16.34-.48-21.07 9.13-2.1 4.28-4.28 9.32-6.49 13.45C130.39 199.17 91.64 266 86.41 274.32c-2 3.12-2.26 3.28-.82 3.28 0 0 13.15.48 27.78.48 22.85 0 31-.63 31-.63 13.26-20.62 44.86-72.93 67.43-118.23 5.2-10.43 7.8-15 7.55-17.21-.02-.42-.42-.16-.64.06z"/><path class="cls-11" d="M143.35 6.36c-1 0-1.68.7-3 2.78-11.24 17.36-49.95 90.3-65.76 124.31-1.94 4.17-2.92 6.2-2.92 8.22h8.25a13.57 13.57 0 0 1 1.59-5.48c10.82-24.26 18.49-39.4 29.92-61.33.66-1.26 1.18-2.09 1.93-2.1l3.2-9.33c11.16-27.82 26.79-57.07 26.79-57.07z"/><path class="cls-12" d="M155 141.76c0-2-.94-4-2.88-8.12-10.93-23.21-22.35-45.83-35.58-70.21l-3.21 9.33c.76 0 1.28.83 1.95 2.1 11.41 21.93 19.09 37.06 29.92 61.34a13.08 13.08 0 0 1 1.56 5.56H155z"/><path class="cls-13" d="M113.35 210.7c-.75 0-1.27-.83-1.94-2.11-11.41-21.93-19.09-37.06-29.92-61.34a13.13 13.13 0 0 1-1.58-5.56h-8.24c0 2 .93 4.08 2.88 8.22 10.93 23.22 22.31 45.78 35.54 70.16z"/><path class="cls-14" d="M113.35 210.7c-.75 0-1.27-.83-1.94-2.11-11.41-21.93-19.09-37.06-29.92-61.34a13.13 13.13 0 0 1-1.58-5.56h-8.25c0 2 .93 4.09 2.88 8.23 10.93 23.22 22.31 45.78 35.54 70.16z"/><path class="cls-15" d="M83.27 277.12c.91 0 2-1.06 3.25-3 .33-.53.78-1.25 1.32-2.16 8.45-14.39 49.18-89.56 64.23-122 1.94-4.17 2.95-6.25 2.95-8.26h-8.22c0 2-.68 3.45-1.58 5.49-10.83 24.28-18.52 39.42-29.92 61.34-.66 1.26-1.2 2.09-1.94 2.1l-3.27 9.36a599.5 599.5 0 0 1-26.82 57.13z"/><path class="cls-16" d="M79.69 276.51a14 14 0 0 1-1.11-1.38c-2.61-3.59-27.93-45.48-44.12-74.89-11.48-20.87-22.81-43-27.64-53.19a13 13 0 0 1-1.47-5.32H0a17.89 17.89 0 0 0 2 7.62c3.76 8.16 14.29 28.93 27.79 53.48 14.74 26.8 41.49 71.38 44.48 75.46a12.57 12.57 0 0 0 3.28 3.33z"/><path class="cls-17" d="M77.56 281.62a8.83 8.83 0 0 0 4.38 1.17c4 .35 21.41.64 31.44.64s28.85-.41 31.44-.64a10.56 10.56 0 0 0 3.52-.74l-2.11-5a5.45 5.45 0 0 1-1.64.36h-.37c-2.31.27-17.68.6-30.83.61-10.6 0-20.61-.23-27.13-.45a14.25 14.25 0 0 0-1.83 0 9.64 9.64 0 0 1-3 0 4 4 0 0 1-1.74-1.18z"/><path class="cls-18" d="M226.71 141.73a17.94 17.94 0 0 0-2-7.61c-4-8.4-16.91-33.77-27.79-53.48-14.53-26.38-41.34-71.28-44.46-75.46-1.64-2.2-2.87-3.24-4.12-3.78l-2 4.88a9.09 9.09 0 0 1 1.86 2c2.61 3.59 27.93 45.48 44.12 74.89 11.48 20.87 22.81 43 27.64 53.19a11.7 11.7 0 0 1 1.47 5z"/><path class="cls-19" d="M78.34 1.42l2.11 5.06A4.64 4.64 0 0 1 82.32 6c2.05-.21 17.9-.61 31.05-.61 10.7 0 21.57.23 27 .45a13.51 13.51 0 0 0 1.83 0 10.72 10.72 0 0 1 3.14 0 3.27 3.27 0 0 1 1 .51l2-4.88a10.79 10.79 0 0 0-3.68-.73C140.52.3 122.7 0 113.37 0c-8.22 0-27.29.21-31.76.66a11.08 11.08 0 0 0-3.27.76z"/><path class="cls-20" d="M78.34 1.42c-1.68.71-2.69 1.93-4.24 4C71 9.41 44.22 54.64 29.8 80.63 19.65 98.93 3.54 130.64 2 134.12a19 19 0 0 0-2 7.62h5.36a12.84 12.84 0 0 1 1.47-5.33C11.66 126.2 23 104.08 34.46 83.22 50.65 53.8 76.07 12 78.54 8.33a4.73 4.73 0 0 1 1.91-1.84z"/><path class="cls-21" d="M148.32 282a10.48 10.48 0 0 0 4.14-3.76c2.89-4 31.72-52.15 44.48-75.46s26.31-50.17 27.79-53.48c1.84-4.12 2-6.14 2-7.62l-5.33-.34a13.92 13.92 0 0 1-1.47 5.66c-4.83 10.21-16.16 32.33-27.64 53.19-16.18 29.41-41.39 71.1-44 74.69-1.09 1.49-1.53 1.92-2.06 2.14z"/><path class="cls-22" d="M142.17 5.81h.29s-1.35 1-4.8 1c-4.1 0-12.61-.19-19.42-.23-12.58-.08-27.56.15-34.56.49-3.71.18-3.93.58-6.31 3.11l1.17-1.83a4.73 4.73 0 0 1 1.91-1.84A4.64 4.64 0 0 1 82.32 6c2.05-.21 17.9-.61 31.05-.61 10.7 0 21.57.23 27 .45a13.51 13.51 0 0 0 1.83 0"/><circle class="cls-23 cls-24 cls-25" cx="154.69" cy="142.94" r="78.24"/><path d="M145.25 136.21c-.44-1-6.54-14.72-13.5-29-7.58-15.54-16.07-31.7-16.43-32.36-.68-1.27-1.21-2.1-1.95-2.1s-1.22.73-1.95 2.1c-.36.67-9 17.32-16.45 32.36s-13.09 28.16-13.47 29a13.8 13.8 0 0 0-1.59 5.48 14.17 14.17 0 0 0 1.58 5.56c.41 1 6.56 14.8 13.53 29.08 7.59 15.54 16.07 31.63 16.39 32.26.64 1.26 1.19 2.11 1.94 2.11s1.28-.83 1.94-2.1c.35-.66 8.78-16.73 16.37-32.26 7-14.25 13.1-28 13.56-29.08.95-2.16 1.58-3.58 1.58-5.49a13.23 13.23 0 0 0-1.55-5.56zm-1.37 10.32v.11c-.06.13-6.31 14.23-13.53 29-6.47 13.24-13.5 26.78-16.22 32l-.13.24a2.19 2.19 0 0 1-.59.88 2.11 2.11 0 0 1-.59-.87l-.4-.77c-7.63-14.6-12.9-25.17-16-31.47-6.92-14.16-13.06-28-13.5-29l-.06-.14a12.65 12.65 0 0 1-1.4-4.82 12.53 12.53 0 0 1 1.45-4.85l.36-.81c4.37-9.92 8.78-19.38 13.09-28.13 7.6-15.43 16.36-32.18 16.43-32.32a2.09 2.09 0 0 1 .6-.9 2.14 2.14 0 0 1 .62.91c.07.13 8.63 16.39 16.4 32.31 6.84 14 12.81 27.45 13.47 28.93a11.91 11.91 0 0 1 1.43 4.94c-.02 1.55-.55 2.76-1.43 4.76z"/><path d="M224.75 134.1c-4.12-8.59-16.93-33.8-27.79-53.49-14.88-27-41.46-71.41-44.48-75.46S147.84 1 145.07.69h-.41c-4-.44-21.05-.64-31.3-.64C104.59 0 85.95.23 81.6.66c-4.09.41-5.2 1.66-7.53 4.71-3.2 4.18-30.22 49.87-44.3 75.25C19.6 99 3.48 130.69 2 134.1a19.31 19.31 0 0 0-2 7.63 18.21 18.21 0 0 0 2 7.63c3.38 7.33 13.56 27.62 27.79 53.49 14.83 27 41.64 71.58 44.48 75.46 3 4.1 5 4.27 7.68 4.51 4.13.37 21.92.64 31.44.64 10.28 0 28.88-.41 31.44-.64s4.74-.43 7.68-4.51c2.7-3.75 31.53-51.79 44.48-75.46 12.41-22.68 26.2-49.93 27.79-53.49 1.75-3.91 2-6 2-7.63a18 18 0 0 0-2.03-7.63zm-1.41 14.63c-1.58 3.54-15.34 30.73-27.73 53.38-12.93 23.63-41.69 71.57-44.38 75.3-2.53 3.51-4.13 3.66-6.56 3.88s-21.05.64-31.3.64c-9.5 0-27.22-.27-31.3-.64-2.56-.23-4-.35-6.56-3.89-2.84-3.87-29.57-48.4-44.38-75.3-14.2-25.83-24.37-46.1-27.74-53.39a16.76 16.76 0 0 1-1.84-7 17.89 17.89 0 0 1 1.85-7c1.49-3.4 17.57-35 27.73-53.36C45.18 56 72.12 10.47 75.3 6.31c2.23-2.91 3-3.77 6.46-4.11 4.29-.43 22.86-.65 31.61-.65 10.21 0 27.17.2 31.13.63h.41c2.58.27 3.76.4 6.33 3.86 3 4 29.5 48.34 44.37 75.28 10.84 19.65 23.63 44.83 27.75 53.41a16.41 16.41 0 0 1 1.84 7c-.01 1.48-.2 3.35-1.86 7zM290.62 238.86h18.74v3.8h-23.52v-35.11a.73.73 0 0 0-.58-.75l-1.73-.75.4-2.13h6.17c.4 0 .52.12.52.58v34.36zM332.42 239.78c-1.73 2.42-4.9 3.57-9.45 3.57-7.32 0-10.67-2.59-10.67-8.24s3.46-8.19 11.3-8.19a25.71 25.71 0 0 1 8.19 1.21v-3.86c0-4.79-2.42-6.69-8.36-6.69a28.49 28.49 0 0 0-8.65 1.38v-3.69a31.43 31.43 0 0 1 9.17-1.33c8.65 0 12.28 3.17 12.28 10.67v14.12a.68.68 0 0 0 .46.81l1.73.75-.42 2.37h-4.78c-.35 0-.46 0-.52-.46zm-.63-8.42a20.43 20.43 0 0 0-7.49-1.27c-5.25 0-7.44 1.38-7.44 5 0 3.4 2.13 5 7 5 5.53 0 8-1.9 8-6.11v-2.54zM364.47 242.66a165.13 165.13 0 0 1-10.9-28h4.67a175.69 175.69 0 0 0 8.59 23.75 175.7 175.7 0 0 0 8.59-23.75h4.67a165.13 165.13 0 0 1-10.9 28h-4.73zM384.88 214.65h5.82c.4 0 .52.12.52.58v27.44h-4.61v-24.1a.68.68 0 0 0-.46-.81l-1.73-.75zm3.92-11.47c2.08 0 3 .87 3 2.94s-.92 2.88-3 2.88-3-.87-3-2.88.87-2.95 3-2.95zM411.92 214c8.53 0 12.11 4.27 12.11 14.24A17.36 17.36 0 0 1 424 230h-20.84c.23 7 3.29 9.74 10.84 9.74a30.05 30.05 0 0 0 8.94-1.38V242a29.6 29.6 0 0 1-9.28 1.33c-10.55 0-15-4.32-15-14.7S402.58 214 411.92 214zm-8.76 12.86h16.43c-.12-6.8-2.31-9.51-7.67-9.51-6-.05-8.59 2.77-8.76 9.46zM430.71 251H427l3.29-13.09h4.84zM471.35 239.78c-1.73 2.42-4.9 3.57-9.45 3.57-7.32 0-10.67-2.59-10.67-8.24s3.46-8.19 11.3-8.19a25.71 25.71 0 0 1 8.19 1.21v-3.86c0-4.79-2.42-6.69-8.36-6.69a28.49 28.49 0 0 0-8.65 1.38v-3.69a31.43 31.43 0 0 1 9.17-1.33c8.65 0 12.28 3.17 12.28 10.67v14.12a.68.68 0 0 0 .46.81l1.73.75-.46 2.36h-4.79c-.35 0-.46 0-.52-.46zm-.63-8.42a20.43 20.43 0 0 0-7.49-1.27c-5.25 0-7.44 1.38-7.44 5 0 3.4 2.13 5 7 5 5.53 0 8-1.9 8-6.11v-2.54zM490.61 242.66a165.14 165.14 0 0 1-10.9-28h4.67A175.69 175.69 0 0 0 493 238.4a175.69 175.69 0 0 0 8.59-23.75h4.67a165.14 165.14 0 0 1-10.9 28h-4.73zM522.84 214c8.53 0 12.11 4.27 12.11 14.24a17.36 17.36 0 0 1-.06 1.79h-20.82c.23 7 3.29 9.74 10.84 9.74a30 30 0 0 0 8.93-1.38V242a29.59 29.59 0 0 1-9.28 1.33c-10.55 0-15-4.32-15-14.7S513.5 214 522.84 214zm-8.76 12.86h16.42c-.12-6.8-2.31-9.51-7.67-9.51-5.99-.05-8.58 2.77-8.76 9.46zM554.31 214a25.28 25.28 0 0 1 8.47 1.21l-.78 3.53a20.65 20.65 0 0 0-7.09-1.1c-6.92 0-9.74 3.17-9.74 11s2.82 11 9.74 11a25 25 0 0 0 7.55-1.15v3.75a27.6 27.6 0 0 1-8.19 1.09c-9.68 0-13.84-4.32-13.84-14.7s4.2-14.63 13.88-14.63zM583 218.57a.68.68 0 0 0-.46-.81l-1.73-.75.46-2.36h5.82c.4 0 .52.12.52.58v2.31c1.73-2.31 4.38-3.57 9.28-3.57 8.53 0 12.16 4.32 12.16 14.7s-3.63 14.7-12.16 14.7c-4.55 0-7.26-1.33-9.28-3.06v14.35H583v-36.09zm4.61 7.09V237a12.81 12.81 0 0 0 8.19 2.65c6.11 0 8.53-3.17 8.53-11s-2.42-11-8.53-11c-5.86-.01-8.22 2.3-8.22 8.01zM633.12 239.78c-1.73 2.42-4.9 3.57-9.45 3.57-7.32 0-10.66-2.59-10.66-8.24s3.46-8.19 11.3-8.19a25.71 25.71 0 0 1 8.19 1.21v-3.86c0-4.79-2.42-6.69-8.36-6.69a28.49 28.49 0 0 0-8.65 1.38v-3.69a31.43 31.43 0 0 1 9.17-1.33c8.65 0 12.28 3.17 12.28 10.67v14.12a.68.68 0 0 0 .46.81l1.73.75-.46 2.36h-4.78c-.35 0-.46 0-.52-.46zm-.63-8.42a20.43 20.43 0 0 0-7.49-1.26c-5.25 0-7.44 1.38-7.44 5 0 3.4 2.13 5 7 5 5.53 0 8-1.9 8-6.11v-2.54zM654.91 214a32.67 32.67 0 0 1 9 1.27l-.75 3.57a25.4 25.4 0 0 0-8.07-1.27c-4.73 0-6.92 1.56-6.92 4.44 0 6.8 16.89 1.67 16.89 12.91 0 5.59-4.09 8.47-11.24 8.47a32.71 32.71 0 0 1-9.8-1.38v-3.75a29.27 29.27 0 0 0 9.45 1.56c4.9 0 7.15-1.79 7.15-4.84 0-7.55-16.89-1.84-16.89-12.91.06-5.46 4.21-8.07 11.18-8.07zM681.78 214a32.67 32.67 0 0 1 9 1.27l-.75 3.57a25.4 25.4 0 0 0-8.07-1.27c-4.73 0-6.92 1.56-6.92 4.44 0 6.8 16.89 1.67 16.89 12.91 0 5.59-4.09 8.47-11.24 8.47a32.71 32.71 0 0 1-9.8-1.38v-3.75a29.27 29.27 0 0 0 9.45 1.56c4.9 0 7.15-1.79 7.15-4.84 0-7.55-16.89-1.84-16.89-12.91.05-5.46 4.2-8.07 11.18-8.07zM697.12 214.65h5.82c.4 0 .52.12.52.58v27.44h-4.61v-24.1a.68.68 0 0 0-.46-.81l-1.73-.75zm3.88-11.48c2.08 0 3 .87 3 2.94s-.92 2.88-3 2.88-3-.87-3-2.88.9-2.94 3-2.94zM724.44 214c9.68 0 13.78 4.38 13.78 14.7s-4.09 14.7-13.78 14.7-13.84-4.4-13.84-14.75S714.76 214 724.44 214zm0 25.71c6.4 0 9.05-3.17 9.05-11s-2.65-11-9.05-11-9.11 3.17-9.11 11 2.67 10.95 9.11 10.95zM769.46 238.74a.68.68 0 0 0 .46.81l1.73.75-.46 2.36h-5.82c-.4 0-.52-.12-.52-.58v-16.89c0-5.42-2-7.44-7-7.44a16.8 16.8 0 0 0-8.3 2.08v22.83h-4.61v-24.1a.68.68 0 0 0-.46-.81l-1.73-.75.46-2.36H749c.4 0 .52.12.52.58v2a12.92 12.92 0 0 1 9.11-3.23c7.72 0 10.84 3.23 10.84 11.13v13.66z"/></svg>